<?xml version="1.0" encoding="UTF-8" standalone="no"?>
<!-- Created with Inkscape (http://www.inkscape.org/) -->

<svg
   xmlns:dc="http://purl.org/dc/elements/1.1/"
   xmlns:cc="http://creativecommons.org/ns#"
   xmlns:rdf="http://www.w3.org/1999/02/22-rdf-syntax-ns#"
   xmlns:svg="http://www.w3.org/2000/svg"
   xmlns="http://www.w3.org/2000/svg"
   xmlns:sodipodi="http://sodipodi.sourceforge.net/DTD/sodipodi-0.dtd"
   xmlns:inkscape="http://www.inkscape.org/namespaces/inkscape"
   width="744.09448819"
   height="1052.3622047"
   id="svg2"
   version="1.1"
   inkscape:version="0.48.3.1 r9886"
   sodipodi:docname="mhp-logo.svg"
   inkscape:export-filename="/home/algernon/Documents/mhp-logo/mhp-logo.png"
   inkscape:export-xdpi="6.9299998"
   inkscape:export-ydpi="6.9299998">
  <defs
     id="defs4" />
  <sodipodi:namedview
     id="base"
     pagecolor="#ffffff"
     bordercolor="#666666"
     borderopacity="1.0"
     inkscape:pageopacity="0.0"
     inkscape:pageshadow="2"
     inkscape:zoom="0.74625935"
     inkscape:cx="130.98413"
     inkscape:cy="521.42857"
     inkscape:document-units="px"
     inkscape:current-layer="layer1"
     showgrid="false"
     inkscape:window-width="1920"
     inkscape:window-height="1053"
     inkscape:window-x="0"
     inkscape:window-y="27"
     inkscape:window-maximized="1" />
  <metadata
     id="metadata7">
    <rdf:RDF>
      <cc:Work
         rdf:about="">
        <dc:format>image/svg+xml</dc:format>
        <dc:type
           rdf:resource="http://purl.org/dc/dcmitype/StillImage" />
        <dc:title></dc:title>
      </cc:Work>
    </rdf:RDF>
  </metadata>
  <g
     inkscape:label="Layer 1"
     inkscape:groupmode="layer"
     id="layer1">
    <g
       id="g3034"
       inkscape:export-xdpi="6.9299998"
       inkscape:export-ydpi="6.9299998">
      <path
         d="m 116.54869,542.22658 0.21333,0 c -0.0711,-0.0711 -0.10662,-0.14225 -0.10666,-0.21333 -0.0711,0.0711 -0.10662,0.14219 -0.10667,0.21333 m 72.32,-82.66667 0,0.10667 0.21333,0 0,-0.64 -0.21333,0.53333 m 74.34667,48.64 0,1.06667 0.96,0.21333 -0.96,-1.28 m -18.34667,-53.33333 c 0.78214,2.8445 1.10214,4.97783 0.96,6.4 l -0.21333,2.24 c 0.42658,1.49339 1.10214,6.32894 2.02666,14.50667 0.35547,3.20003 1.91992,6.89781 4.69334,11.09333 2.41768,3.6978 3.59102,5.72447 3.52,6.08 -1e-4,0.21335 -0.0712,0.32002 -0.21334,0.32 -0.42675,2e-5 -1.38675,-0.81776 -2.88,-2.45333 0.85325,0.85335 1.74214,2.56002 2.66667,5.12 0.92435,2.4889 1.70657,4.0889 2.34667,4.8 1.77768,0.99556 3.5199,2.38223 5.22666,4.16 l 0,0 0.21334,-0.10667 0.32,0 c 0.49767,-0.49777 0.67545,-1.52888 0.53333,-3.09333 -0.0712,-0.78221 -0.21343,-1.9911 -0.42667,-3.62667 0.42657,-0.56887 0.81768,-1.13776 1.17334,-1.70667 l 3.52,5.01334 c 0.56878,0.85334 0.21323,2.41779 -1.06667,4.69333 -1.20899,2.27556 -2.31121,3.69778 -3.30667,4.26667 -0.49787,2.34667 -1.49343,5.36888 -2.98666,9.06666 -0.71121,1.06666 -1.31565,3.2 -1.81334,6.4 l -0.85333,5.12 c -0.56898,-10e-6 -1.13787,-2.66668 -1.70667,-8 l -0.85333,-8.10666 c -2.41787,-3.27111 -3.9112,-4.90667 -4.48,-4.90667 -0.78231,0 -1.28009,1.03111 -1.49333,3.09333 -1.20898,-0.63999 -2.13342,-2.34666 -2.77334,-5.12 -0.56897,-2.27554 -0.81786,-4.33776 -0.74666,-6.18666 -3.05786,-2.70221 -5.40452,-11.27109 -7.04,-25.70667 -0.0712,-0.0711 -0.17786,-0.10663 -0.32,-0.10667 -0.28452,4e-5 -0.64008,1.70671 -1.06667,5.12 -0.49785,4.48003 -0.81785,6.79114 -0.96,6.93334 l 0,-8.42667 c -7e-5,-0.42663 0.24882,-3.80441 0.74667,-10.13333 l 0.21333,-0.21334 c -2.20452,-2.84439 -3.66229,-6.54217 -4.37333,-11.09333 -2.20451,5.33338 -4.6934,12.26671 -7.46667,20.8 l -6.82667,21.12 c -0.49783,1.42224 -0.81783,2.4889 -0.96,3.2 0.42662,0.5689 0.63995,0.92445 0.64,1.06667 -5e-5,0.28445 -0.24894,0.67556 -0.74666,1.17333 l -0.74667,0.74667 c -5e-5,-0.28444 -0.0712,-0.42666 -0.21333,-0.42667 -0.2845,10e-6 -0.78228,0.49779 -1.49334,1.49333 -1.13782,1.56445 -1.70671,2.63112 -1.70666,3.2 -5e-5,4.69334 0.21328,7.36 0.64,8 -0.49783,-1.56444 -0.9245,-2.73778 -1.28,-3.52 l 0,0 c -0.35561,0.28445 -0.74672,0.56889 -1.17334,0.85334 0.0711,2.06222 0.42662,4.19555 1.06667,6.4 0.92439,3.19999 2.02662,4.79998 3.30667,4.8 0.63994,-2e-5 1.27994,-0.42668 1.92,-1.28 -6e-5,-0.5689 -0.17784,-0.17779 -0.53334,1.17333 -0.28449,1.42221 -0.42672,2.23999 -0.42666,2.45333 -6e-5,1.49332 0.60439,1.95554 1.81333,1.38667 0.42661,-0.21335 0.63994,-0.2489 0.64,-0.10667 l 0.53333,1.81334 c 0.3555,1.13776 0.49772,1.81331 0.42667,2.02666 -0.0712,-0.35557 -0.14228,-0.53335 -0.21333,-0.53333 -0.2845,0.21331 -0.78228,0.85331 -1.49334,1.92 -2.06227,3.12886 -3.20005,4.76442 -3.41333,4.90667 -5.26227,-3e-5 -8.14227,-1.88447 -8.64,-5.65334 2.41773,-3.27113 3.62662,-10.41778 3.62667,-21.44 -5e-5,-0.21333 0.0355,-0.35555 0.10666,-0.42666 -7.11115,-5.76 -11.37781,-14.11554 -12.8,-25.06667 -2.48892,-6.75552 -5.6178,-16.95996 -9.38666,-30.61333 -0.21336,0.2845 -0.56892,0.71116 -1.06667,1.28 l 0,5.33333 -2.98667,8.64 c -0.14224,2.06226 -1.24446,11.84003 -3.30666,29.33333 -2e-5,0.0711 -0.0356,0.10668 -0.10667,0.10667 -0.92446,10e-6 -1.42224,-3.98221 -1.49333,-11.94667 -0.28446,0.0711 -1.81335,5.08447 -4.58667,15.04 -2.34668,8.46223 -4.30223,14.29333 -5.86667,17.49334 -1.92,3.98221 -4.97777,8.21331 -9.17333,12.69333 l -1.49333,5.12 c -0.99555,3.48441 -1.92,5.36886 -2.77334,5.65333 -1.06665,0.42664 -2.34665,-1.67114 -3.84,-6.29333 -3.76887,3.4133 -8.39109,5.83108 -13.86666,7.25333 -1.13775,-3e-5 -2.84442,0.14219 -5.12,0.42667 l -2.88,3.62667 c -1.91997,2.34662 -3.44885,3.4844 -4.58667,3.41333 -2.06218,-0.14226 -3.1644,-1.42226 -3.30667,-3.84 -0.21329,-2.77337 -1.31551,-4.65781 -3.30666,-5.65333 -2.8444,-1.35114 -4.26662,-3.09336 -4.26667,-5.22667 l 0.42667,0 -0.21334,-0.42667 c 5e-5,-0.28447 0.10672,-0.92447 0.32,-1.92 l 0.64,-0.42666 c 0.78227,-0.35558 2.52449,-0.67558 5.22667,-0.96 -0.14218,0.56886 -0.21329,1.1022 -0.21333,1.6 4e-5,0.78219 0.14226,1.49331 0.42666,2.13333 0.64005,0.42664 1.74227,0.71108 3.30667,0.85333 0.49782,-2e-5 1.7067,0.31998 3.62667,0.96 0.64003,0.21331 1.20892,0.31998 1.70666,0.32 8.39114,-2e-5 15.96447,-4.08891 22.72,-12.26666 7.6089,-9.17334 13.01334,-18.98667 16.21334,-29.44 l 4.26666,-13.97334 c 2.70221,-8.81774 5.04888,-16.99551 7.04,-24.53333 0.7111,-2.70217 1.06665,-7.18216 1.06667,-13.44 -2e-5,-0.71104 0.28443,-1.81327 0.85333,-3.30667 0.63998,-1.49326 0.95998,-2.27548 0.96,-2.34666 -0.42668,0.28451 -0.85335,0.5334 -1.28,0.74666 l -0.32,-1.81333 c -0.42668,-0.21326 -1.10224,-0.74659 -2.02666,-1.6 -0.92446,-0.92437 -1.38668,-1.52881 -1.38667,-1.81333 -1e-5,-0.99548 2.63109,-2.48881 7.89333,-4.48 0.35554,-0.14214 1.70665,0.1423 4.05334,0.85333 2.34664,0.64008 3.80441,0.96008 4.37333,0.96 0.71108,8e-5 1.42219,-0.10659 2.13333,-0.32 0.92441,4.05341 1.38664,7.60896 1.38667,10.66667 -3e-5,1.28006 -0.17781,3.05784 -0.53333,5.33333 0.35552,0.28451 0.78218,0.60451 1.28,0.96 1.35107,1.99117 2.02663,3.69784 2.02666,5.12 -3e-5,0.9245 -0.32003,1.63561 -0.96,2.13333 0.49775,0.71117 1.27997,3.66228 2.34667,8.85334 l 2.02667,9.70666 c 0.56885,1.28004 1.06662,1.92004 1.49333,1.92 0.85329,4e-5 1.27996,-0.92441 1.28,-2.77333 -4e-5,-0.42663 -0.10671,-0.81774 -0.32,-1.17333 3.19995,7.32447 4.79995,13.79558 4.8,19.41333 1.06662,-2.77331 2.31106,-5.47553 3.73333,-8.10667 2.55995,-3.4133 4.79995,-9.13774 6.72,-17.17333 l 4.37334,-18.45333 c -0.28451,-0.63994 -0.42673,-1.31549 -0.42667,-2.02667 -6e-5,-0.21327 0.46216,-1.88438 1.38667,-5.01333 0.071,-0.14216 0.35549,-1.03104 0.85333,-2.66667 l -4.05333,-2.24 c 0.28438,-0.14215 1.81327,0.1423 4.58666,0.85333 1.13772,0.1423 2.27549,0.32008 3.41334,0.53334 l -3.30667,-2.77334 c -6e-5,-0.071 0.0355,-0.10659 0.10667,-0.10666 -0.0712,-0.14215 -0.10673,-0.24882 -0.10667,-0.32 -6e-5,-0.21326 1.63549,-1.06659 4.90667,-2.56 2.48881,-1.1377 4.6577,-1.70659 6.50666,-1.70667 0.71104,8e-5 1.35104,0.0712 1.92,0.21333 0.71104,5.12008 1.06659,8.00008 1.06667,8.64 -8e-5,1.49341 -0.17786,2.66674 -0.53333,3.52 l 2.88,3.2 c -0.56897,-0.49771 -0.96008,-0.85326 -1.17334,-1.06666 0.21326,0.71117 -8e-5,1.63562 -0.64,2.77333 0.63992,6e-5 1.10215,0.5334 1.38667,1.6"
         id="path3006"
         inkscape:connector-curvature="0"
         style="font-size:144px;font-style:normal;font-variant:normal;font-weight:normal;font-stretch:normal;text-align:start;line-height:125%;letter-spacing:0px;word-spacing:0px;writing-mode:lr-tb;text-anchor:start;fill:#000000;fill-opacity:1;stroke:none;font-family:Rebuffed;-inkscape-font-specification:Rebuffed" />
      <path
         d="m 261.96848,530.80213 c -1.07832,-1.5516 -1.64511,-2.43037 -1.7003,-2.63641 -0.44174,-1.64852 -2.06973,-5.11416 -4.88402,-10.39693 l -3.40649,-10.24055 c -0.0148,-0.87945 -0.0499,-1.42219 -0.10501,-1.62827 -0.33134,-1.2364 -1.73602,-3.73118 -4.21402,-7.48443 0.11995,-0.10442 0.15145,-0.26083 0.0949,-0.46745 -0.12885,-0.48083 -0.64531,-1.4467 -1.54946,-2.89769 0.14648,-0.55427 0.12649,-1.1751 -0.0572,-1.86199 -0.25769,-0.96161 -0.86865,-2.41751 -1.8329,-4.36774 l -2.16967,-4.38804 c -1.57127,-0.0943 -3.30258,0.0384 -5.19397,0.39793 -0.87458,0.30794 -1.58655,0.53554 -2.13608,0.68275 -1.64852,0.44177 -3.16218,0.70006 -4.54084,0.77501 l -0.35639,0.31697 -0.25588,-1.36697 c -2.41396,0.0579 -3.70372,-0.22239 -3.86941,-0.84058 -0.0736,-0.27469 0.52536,-1.06112 1.79749,-2.35881 1.20278,-1.27975 2.01086,-1.97431 2.42302,-2.08478 0.48078,-0.12878 0.66174,-0.14047 0.54275,-0.035 l 2.45798,-1.54204 5.34285,-2.31508 c -1.47235,-5.49495 -4.14812,-11.77188 -8.02722,-18.83066 l -1.30643,-0.75421 -1.83434,0.16021 c -0.96167,0.25772 -1.4793,0.24917 -1.55298,-0.0251 -0.0366,-0.13729 0.0208,-0.3366 0.17107,-0.59797 0.1321,-0.33005 0.18965,-0.52915 0.17084,-0.59806 -0.0184,-0.0687 -0.13009,-0.0763 -0.33667,-0.0208 -0.27478,0.0736 -0.77149,0.28048 -1.49022,0.62015 l -0.85391,-1.53805 c -0.56921,-1.02536 -0.20129,-1.71285 1.10355,-2.06277 -0.34347,0.0921 0.80157,-0.0307 3.43507,-0.36824 -0.66998,-0.85101 -1.53876,-1.75953 -2.60741,-2.72469 1.59198,-1.75161 2.89149,-2.94642 3.89841,-3.58448 l 0.149,-1.91712 c 2.30712,-1.28073 3.63239,-1.96715 3.97582,-2.05928 2.54149,-0.68085 6.31385,-0.47699 11.31727,0.61174 2.98059,2.88258 4.4947,4.68533 4.5413,5.40901 0.13506,1.87795 0.28546,3.12601 0.4511,3.74416 0.14722,0.54953 0.30794,0.87457 0.48211,0.97508 l -2.46329,2.75829 c 1.04643,1.70737 1.76291,3.28227 2.14941,4.72468 0.42329,1.57986 0.65221,3.39585 0.68675,5.44787 0.0493,2.93167 0.12245,4.71575 0.2194,5.3523 0.14241,0.25631 0.29383,0.54709 0.45453,0.87201 l 11.45675,-3.40109 c 0.10056,-0.17408 0.11656,-0.25198 0.0473,-0.2338 0.74921,-1.59959 1.99592,-2.8539 3.74021,-3.76287 2.50951,-0.52517 4.69723,-0.19117 6.56301,1.00214 -0.0687,0.0185 -0.0104,0.0788 0.15917,0.17759 l 11.62246,-2.78293 c -0.0233,-0.36176 -0.0376,-0.68929 -0.0425,-0.98248 -0.17922,-0.39367 -1.05145,-2.00045 -2.61681,-4.8203 -0.99619,-1.79437 -1.69673,-3.44716 -2.10155,-4.95841 -0.38656,-1.44237 -0.51921,-3.17369 -0.3979,-5.19398 l -3.61545,-1.12943 c 0.16813,-0.19342 0.17958,-0.56373 0.0328,-1.11313 -0.18408,-0.68675 -0.64103,-1.70545 -1.371,-3.05596 -0.67972,-1.43739 -1.09564,-2.57748 -1.24772,-3.42028 1.15416,-0.0883 2.31514,-0.28896 3.48285,-0.6019 5.90715,-1.58273 8.66547,-4.7513 8.27509,-9.50565 0.34336,-0.0919 1.8343,-0.16013 4.47275,-0.20462 l 1.08752,1.58593 c 1.19099,0.0486 2.91379,0.43404 5.16835,1.155 -0.44299,1.37012 -0.74094,2.59148 -0.89571,3.66331 l 1.49031,-0.62016 c 1.45583,-0.61092 2.04644,-0.87958 1.77174,-0.80603 1.16764,-0.3128 1.79565,0.10795 1.88391,1.26238 l 0.13266,1.73129 c -0.79244,0.0652 -1.32602,0.13458 -1.60073,0.20812 -0.20609,0.0552 -0.29998,0.11711 -0.28163,0.18563 0.0181,0.0688 0.16709,0.21321 0.44708,0.43243 0.2609,0.15158 0.40987,0.2956 0.4472,0.43226 0.0735,0.27485 -0.40471,0.55031 -1.43506,0.82623 l -1.66872,0.77848 -0.75428,1.30635 c 0.0516,1.01695 0.2798,2.28094 0.68478,3.79198 0.22082,0.82434 0.58642,2.05151 1.09688,3.68157 0.51034,1.63018 0.87599,2.8573 1.09694,3.68153 1.12259,4.19003 1.01862,7.23628 -0.31213,9.13876 l 1.03034,-0.27603 c 1.64844,-0.44166 4.1654,-0.5271 7.55087,-0.25646 0.11975,-0.10443 0.28155,-0.18565 0.48761,-0.24103 0.41203,-0.11039 1.45895,0.0877 3.14072,0.59413 1.75033,0.48806 2.6624,0.86931 2.73611,1.14413 0.16555,0.61823 -0.81087,1.50598 -2.93081,2.66256 l 0.46192,1.31177 c -0.0862,-0.0519 -0.24332,-0.0808 -0.46748,-0.0949 -1.23153,0.62448 -2.67154,1.15759 -4.31997,1.59923 -0.48085,0.12888 -1.17692,0.27867 -2.08823,0.44915 -1.81783,0.63434 -3.41787,1.39437 -4.80007,2.28005 l 0.315,4.88492 c 0.13998,2.17108 0.33881,3.73743 0.59657,4.69905 0.18399,0.6869 0.47776,1.23394 0.88141,1.64108 0.0295,1.759 0.10874,2.87884 0.23765,3.35963 0.0552,0.20611 0.11706,0.30001 0.18586,0.28154 -0.26954,4.48943 -0.23863,7.35229 0.0927,8.58862 0.0552,0.20607 0.29626,0.69372 0.72324,1.46266 1.72598,3.14486 2.86516,5.74763 3.41737,7.80831 1.32506,4.94552 1.41001,8.97178 0.25495,12.07888 -0.47968,1.23279 -0.71419,4.20366 -0.70392,8.91255 l 0.26862,0.59055 c -0.15564,-0.0327 -0.24523,-0.22885 -0.26862,-0.59055 l -2.57091,-6.70992 -1.59586,-7.19202 c -0.59883,-2.78432 -1.14362,-4.40521 -1.63424,-4.8627 -0.30941,2.14409 -0.6817,4.59982 -1.11797,7.36703 -0.25283,-0.66844 -0.54906,-1.36209 -0.88882,-2.08088 -0.16574,-0.61811 -0.1345,-1.32587 0.0937,-2.12321 -0.29452,-1.09901 -0.89876,-2.66719 -1.81272,-4.70448 -0.91402,-2.03728 -1.51829,-3.60541 -1.81271,-4.70444 -0.34975,-1.30505 -0.19952,-2.11832 0.45052,-2.4398 0.27209,-2.28148 0.19652,-4.21213 -0.22677,-5.79193 -0.18408,-0.68685 -0.3817,-1.14929 -0.59256,-1.38729 0.0919,0.34349 -0.32778,-2.04713 -1.25913,-7.17181 -0.15216,-0.8426 -0.27431,-1.43567 -0.3663,-1.77914 -0.5154,-1.92325 -1.51711,-4.5628 -3.00528,-7.91867 -1.86439,-0.0898 -4.58255,0.34454 -8.15428,1.30149 -0.20613,0.0553 -0.77403,0.13378 -1.70373,0.23565 -0.0139,0.22453 -0.1575,0.37362 -0.4322,0.44729 -0.82427,0.22087 -3.66945,-0.23157 -8.5354,-1.35694 0.33011,0.13203 0.63472,0.30844 0.91449,0.52794 0.85248,0.43424 1.3845,0.76972 1.59504,1.00844 -0.10155,0.17368 -0.16797,0.33863 -0.19851,0.49493 -0.70535,0.11541 -1.36706,0.25594 -1.98523,0.42147 -0.61822,0.16574 -1.26155,0.37496 -1.92999,0.62762 -0.91989,0.68831 -1.96795,1.44768 -3.14427,2.27803 -0.46238,0.19754 -0.89968,0.35153 -1.31172,0.46194 -1.03037,0.27613 -1.65351,0.14857 -1.86943,-0.38255 -0.85613,0.37669 -1.38726,0.59258 -1.59328,0.64773 -3.5718,0.95711 -6.14267,1.94048 -7.71261,2.95001 0.32042,3.66878 0.73834,6.46482 1.25368,8.38804 0.11044,0.41212 0.30117,0.98684 0.57237,1.7239 1.84274,4.95418 2.70895,7.22509 2.59852,6.81299 -0.13214,0.33011 -0.10585,0.83848 0.0774,1.52523 0.42325,1.57986 1.32319,3.28968 2.69956,5.12943 0.79233,-0.0651 1.36328,0.55521 1.71322,1.85988 0.29444,1.09901 0.55525,2.7592 0.7824,4.98057 0.22705,2.22134 0.48783,3.88153 0.78238,4.98054 0.59594,0.57664 0.9771,1.17366 1.14272,1.79193 0.065,0.79239 0.12097,1.55047 0.1676,2.27415 -0.61463,-0.64514 -1.38237,-1.17575 -2.30365,-1.59141 -0.74442,1.89266 -0.93242,3.52599 -0.56445,4.89972 0.25764,0.96163 0.71222,1.83369 1.36362,2.6162 l 2.95889,3.62441 c 0.92741,1.81288 2.20889,4.67196 3.84429,8.57734 0.65766,2.17953 0.92025,3.43434 0.78778,3.76433 -0.21487,0.57274 -1.29948,1.19484 -3.2546,1.86593 -0.73719,0.27113 -1.95337,0.26571 -3.6485,-0.0162 -1.69522,-0.2821 -2.69437,-0.71369 -2.99731,-1.29513 l 0.15821,0.1785 c 0.0265,-0.449 -0.33692,-2.08156 -1.09149,-4.89774 -0.0921,-0.34343 -0.086,-1.00764 0.0183,-1.99258 0.19184,-0.93461 0.2227,-1.64243 0.0938,-2.12327 -0.0381,-1.2413 0.79646,-2.38517 2.50412,-3.43139"
         id="path3008"
         inkscape:connector-curvature="0"
         style="font-size:144px;font-style:normal;font-variant:normal;font-weight:normal;font-stretch:normal;text-align:start;line-height:125%;letter-spacing:0px;word-spacing:0px;writing-mode:lr-tb;text-anchor:start;fill:#000000;fill-opacity:1;stroke:none;font-family:Rebuffed;-inkscape-font-specification:Rebuffed" />
      <path
         d="m 289.34268,461.68597 c -0.46936,-2.0194 -1.35167,-4.79914 -2.64596,-8.33955 l -4.05788,-7.85341 0.018,-1.58563 c -0.30556,-1.32375 -1.83663,-3.80485 -4.5936,-7.44333 0.67237,-0.23143 0.20061,-0.18184 -1.41528,0.14889 0.52459,-1.53436 0.49524,-3.36688 -0.088,-5.49757 -0.41887,-1.43511 -1.04075,-2.91317 -1.86533,-4.4343 l -2.40427,-4.36152 c -2.35994,0.13581 -5.01922,0.7125 -7.97757,1.73156 -1.00854,0.34731 -2.49823,0.93542 -4.46902,1.76444 -1.92676,0.73862 -3.39437,1.28163 -4.40292,1.62883 -1.94988,0.67142 -3.74445,1.13851 -5.38338,1.4024 -0.24578,0.15993 -0.39074,0.28499 -0.43481,0.37533 l -0.24961,-1.38057 c -2.87467,0.38811 -4.39416,0.2343 -4.55844,-0.46103 -0.0926,-0.26893 0.6183,-1.15296 2.13271,-2.65219 1.58167,-1.52228 2.64146,-2.37605 3.17934,-2.56131 1.61367,-0.5557 4.16425,-1.88507 7.65171,-3.98843 l 10.09366,-6.07023 c -1.19177,-4.55334 -3.83432,-10.26181 -7.9274,-17.12544 l -1.59224,-0.69267 -2.22215,0.42689 c -4.63933,1.59748 -9.60933,3.87285 -14.90996,6.82609 -6.37415,3.54861 -10.75107,6.67272 -13.13072,9.37222 2.22992,0.36041 3.9511,0.44461 5.16356,0.25266 l 1.08799,0.86636 c 0.021,0.0678 0.26074,0.21108 0.71265,0.43147 0.38471,0.24365 0.57819,0.47786 0.58038,0.70265 0.069,0.20194 -0.0407,0.42774 -0.33064,0.6779 l 0.34062,0.33398 c 0.0926,0.26902 -0.0628,0.47292 -0.46621,0.6118 0.20185,-0.069 0.50315,-0.28604 0.90435,-0.64983 0.0882,-0.18074 0.50407,-0.17429 1.24833,0.0214 -1.07135,0.8202 -2.33886,2.27197 -3.80257,4.35529 -1.46366,2.08341 -2.5967,3.48885 -3.39916,4.21636 l -2.78585,1.41051 c -0.20396,-0.15537 -0.68123,-0.66788 -1.43198,-1.53758 l -1.29635,-1.47144 -2.33625,-0.88775 c -0.18078,-0.0881 -0.31749,-0.26669 -0.4101,-0.53565 -0.11555,-0.3362 -0.11021,-0.86462 0.018,-1.58564 0.12786,-0.72084 0.13388,-1.24938 0.018,-1.58558 3.83322,-8.0886 11.43517,-14.84263 22.80578,-20.26209 l 6.98378,-3.30721 c 3.69359,-1.723 5.53817,-2.80939 5.53372,-3.25917 -0.20392,-0.15534 -0.15115,-0.54949 0.15703,-1.18221 l 0.42484,-1.38718 c -0.0689,-0.20184 -0.19455,-0.34662 -0.37534,-0.43487 0.19947,-0.29424 0.24138,-0.60947 0.12558,-0.94572 -0.14068,-0.62835 -2.55909,-2.95441 -7.25384,-6.97859 -0.0455,-0.13461 -0.0371,-0.21301 0.0314,-0.23645 l 7.76918,-2.3367 c 0.38029,-0.20601 0.77212,-0.37861 1.17553,-0.51756 2.95843,-1.01856 7.59679,-0.43467 13.91514,1.75176 -0.20194,0.069 -0.291,0.13795 -0.26786,0.20503 0.22706,0.22275 0.68949,0.36435 1.38723,0.42486 1.1728,0.34832 1.99456,0.44143 2.46522,0.27928 1.07579,-0.37027 2.17743,-1.53935 3.30497,-3.50705 0.15994,0.24586 0.24841,1.26825 0.26629,3.06704 0.0616,1.70864 0.16208,2.76457 0.30101,3.16788 0.11825,0.56109 0.32297,0.82898 0.6151,0.80353 25.1015,-6.38679 38.64617,-5.71079 40.63407,2.02804 1.00427,3.79071 0.63637,7.52737 -1.10382,11.21009 -1.74032,3.68284 -4.33214,6.53071 -7.77546,8.54355 l -18.54883,10.67379 c 0.42654,-0.0715 -2.21774,0.87649 -7.93282,2.84432 -0.26903,0.0926 -0.77214,0.37877 -1.5095,0.85819 0.22956,5.03517 0.42537,7.78809 0.58753,8.25871 0.0953,0.49374 0.29173,1.0653 0.59026,1.71458 0.62063,1.36568 1.52021,3.65062 2.69875,6.85483 -0.15324,0.42879 -0.14769,0.99096 0.0165,1.6865 0.4212,1.65995 1.38243,3.35962 2.88387,5.09887 0.80675,-0.27789 1.38384,0.0876 1.73115,1.0961 0.32404,0.94134 0.46169,2.32296 0.41193,4.14504 -0.0825,3.03678 -0.72891,4.76351 -1.93914,5.18022 2.24317,1.7095 3.57316,3.16938 3.98991,4.37963 0.1615,0.47084 0.25737,0.96433 0.28485,1.48133 -2.08784,-1.91337 -3.75177,-3.03262 -4.99178,-3.35774 0.64375,1.43291 1.37305,3.55083 2.18781,6.35387 5.61511,3.85761 8.79756,7.31191 9.54732,10.36298 0.49059,1.86165 -0.6336,4.1666 -3.37252,6.91472 -0.11135,0.1135 -0.20067,0.18183 -0.26785,0.20501 -0.20191,0.0689 -0.70824,0.0184 -1.51949,-0.15368 -0.74408,-0.19507 -1.21694,-0.25787 -1.4186,-0.1884 -1.32163,0.53026 -3.11122,0.35661 -5.36864,-0.52052 -1.46722,-0.54773 -2.46698,-1.59484 -2.99945,-3.14126 -0.0927,-0.26895 0.29811,-0.55393 1.1722,-0.85488 l 1.61367,-0.55571 c 0.38025,-0.2061 0.56926,-0.42164 0.5671,-0.64653 -1.3305,-0.36919 -2.7293,-0.82764 -4.19642,-1.37536 l 0.4001,-0.4762 c 0.11005,-2.51978 0.677,-5.46011 1.70085,-8.821 m 14.63806,-75.43555 c -0.58521,-2.35547 -3.64265,-3.37096 -9.17156,-3.04668 -4.2702,0.26716 -8.15348,1.00214 -11.64974,2.20632 -0.4033,0.13932 -0.99477,0.60582 -1.77401,1.40049 -0.77929,0.79487 -1.32544,1.28376 -1.63841,1.46668 -1.56522,0.91507 -2.50318,1.57646 -2.81397,1.98426 1.85182,0.79136 3.19887,2.84702 4.04124,6.16691 -0.29756,1.75712 -0.40873,4.1645 -0.33358,7.22207 l 0.91331,3.63406 15.38614,-6.42604 c 2.68723,-1.15085 4.71417,-3.12733 6.08085,-5.92944 1.34347,-2.86921 1.6635,-5.76213 0.96013,-8.67875 m -38.77941,18.42941 -3.80334,-9.40763 c -0.55883,0.34288 -0.73298,0.92932 -0.52239,1.75926 0.27964,1.03187 0.87843,2.44273 1.79583,4.23261 1.07705,2.03586 1.92037,3.17444 2.5299,3.41576 m 2.96994,6.98708 c -1.24356,-2.95614 -2.11998,-5.17386 -2.6293,-6.65312 0.4808,3.14368 0.79054,4.91721 0.92905,5.32068 0.22709,0.22268 0.79368,0.66684 1.69981,1.33251 M 276.31506,426.8 c -0.77102,-2.89323 -1.6415,-4.54893 -2.61269,-4.96665 -0.25784,1.21698 -0.0164,2.90121 0.72457,5.05272 0.64816,1.88271 1.45074,3.44897 2.40761,4.69885 -0.0553,-1.0339 -0.22789,-2.62892 -0.5194,-4.78492"
         id="path3010"
         inkscape:connector-curvature="0"
         style="font-size:144px;font-style:normal;font-variant:normal;font-weight:normal;font-stretch:normal;text-align:start;line-height:125%;letter-spacing:0px;word-spacing:0px;writing-mode:lr-tb;text-anchor:start;fill:#000000;fill-opacity:1;stroke:none;font-family:Rebuffed;-inkscape-font-specification:Rebuffed" />
    </g>
  </g>
</svg>
